<?xml version="1.0" encoding="UTF-8"?>
<!-- Do not edit this file with editors other than draw.io -->
<!DOCTYPE svg PUBLIC "-//W3C//DTD SVG 1.1//EN" "http://www.w3.org/Graphics/SVG/1.1/DTD/svg11.dtd">
<svg xmlns="http://www.w3.org/2000/svg" style="background: #FFFFFF; background-color: #FFFFFF; color-scheme: light dark;" xmlns:xlink="http://www.w3.org/1999/xlink" version="1.1" width="79px" height="49px" viewBox="0 0 79 49" content="&lt;mxfile host=&quot;app.diagrams.net&quot; scale=&quot;1&quot; border=&quot;0&quot;&gt;&#10;  &lt;diagram name=&quot;ページ-1&quot; id=&quot;L9lg5AuZ79uBe9d2lGW3&quot;&gt;&#10;    &lt;mxGraphModel dx=&quot;1324&quot; dy=&quot;1235&quot; grid=&quot;1&quot; gridSize=&quot;10&quot; guides=&quot;1&quot; tooltips=&quot;1&quot; connect=&quot;1&quot; arrows=&quot;1&quot; fold=&quot;1&quot; page=&quot;1&quot; pageScale=&quot;1&quot; pageWidth=&quot;827&quot; pageHeight=&quot;1169&quot; background=&quot;light-dark(#FFFFFF,#FFFFFF)&quot; math=&quot;0&quot; shadow=&quot;0&quot;&gt;&#10;      &lt;root&gt;&#10;        &lt;mxCell id=&quot;0&quot; /&gt;&#10;        &lt;mxCell id=&quot;1&quot; parent=&quot;0&quot; /&gt;&#10;        &lt;mxCell id=&quot;E8LI7avelX8UHTR-ykrx-4&quot; parent=&quot;1&quot; style=&quot;sketch=0;outlineConnect=0;dashed=0;verticalLabelPosition=bottom;verticalAlign=top;align=center;html=1;fontSize=12;fontStyle=0;aspect=fixed;pointerEvents=1;shape=mxgraph.aws4.internet;&quot; value=&quot;&quot; vertex=&quot;1&quot;&gt;&#10;          &lt;mxGeometry height=&quot;48&quot; width=&quot;78&quot; x=&quot;480&quot; y=&quot;410&quot; as=&quot;geometry&quot; /&gt;&#10;        &lt;/mxCell&gt;&#10;      &lt;/root&gt;&#10;    &lt;/mxGraphModel&gt;&#10;  &lt;/diagram&gt;&#10;&lt;/mxfile&gt;&#10;"><defs/><rect fill="#FFFFFF" width="100%" height="100%" x="0" y="0" style="fill: rgb(255, 255, 255);"/><g><g data-cell-id="0"><g data-cell-id="1"><g data-cell-id="E8LI7avelX8UHTR-ykrx-4"><g transform="translate(0.5,0.5)"><rect x="0" y="0" width="78" height="48" fill="none" stroke="none" pointer-events="all"/><path d="M 56.82 34.86 L 50.76 40.91 L 50.76 21.33 L 47.39 21.33 L 47.39 40.72 L 41.6 34.83 L 39.2 37.2 L 47.95 46.09 C 48.26 46.41 48.69 46.59 49.14 46.59 L 49.15 46.59 C 49.59 46.59 50.02 46.41 50.34 46.1 L 59.2 37.24 Z M 36.2 31.38 L 38.58 29 L 29.72 20.14 C 29.41 19.83 28.98 19.65 28.53 19.65 L 28.53 19.65 C 28.08 19.65 27.65 19.83 27.33 20.15 L 18.58 29.04 L 20.98 31.41 L 26.78 25.52 L 26.78 47.94 L 30.15 47.94 L 30.15 25.33 Z M 32.8 47.97 L 44.71 47.98 L 44.71 44.61 L 32.8 44.6 Z M 76.08 33.75 C 76.08 37.94 74.81 41.33 72.3 43.81 C 68.17 47.92 62.18 48 61.71 48 L 61.69 48 L 53.67 47.99 L 53.67 44.62 L 61.7 44.63 C 61.77 44.63 66.75 44.6 69.95 41.41 C 71.78 39.57 72.71 37 72.71 33.75 C 72.71 31.76 72.16 28.78 67.44 25.88 C 64.95 24.36 62.63 23.86 61.75 23.72 C 60.85 23.57 60.24 22.75 60.34 21.86 C 60.04 18.33 58.39 15.86 55.79 15.07 C 53.54 14.39 51.14 15.18 49.65 17.1 C 49.28 17.58 48.69 17.83 48.07 17.73 C 47.46 17.64 46.96 17.23 46.74 16.65 C 45.7 13.85 44.2 11.49 42.27 9.65 C 39.9 7.38 33.38 2.49 24.16 6.22 C 18.88 8.35 14.74 14.48 14.74 20.17 C 14.74 20.8 14.78 21.44 14.86 22.06 C 14.96 22.87 14.46 23.65 13.68 23.88 C 13.62 23.9 13.55 23.92 13.48 23.93 C 10.38 24.71 5.29 27.06 5.29 34.03 C 5.29 39.33 8.32 42.26 10.86 43.78 C 11.73 44.3 12.73 44.58 13.76 44.58 L 24.12 44.59 L 24.12 47.96 L 13.76 47.95 C 12.12 47.95 10.52 47.51 9.13 46.67 C 6.44 45.06 1.92 41.27 1.92 34.03 C 1.92 27.78 5.43 23.01 11.39 21.03 C 11.38 20.74 11.37 20.46 11.37 20.17 C 11.37 13.09 16.33 5.75 22.9 3.09 C 30.56 0 38.67 1.55 44.6 7.22 C 46.34 8.88 47.78 10.88 48.91 13.17 C 51.16 11.54 54.03 11.02 56.77 11.85 C 60.46 12.96 62.95 16.22 63.6 20.66 C 65.5 21.14 67.49 21.96 69.2 23.01 C 73.83 25.85 76.08 29.36 76.08 33.75 Z" fill="#ffffff" stroke="none" pointer-events="all" style="fill: light-dark(#ffffff, var(--ge-dark-color, #121212));"/></g></g></g></g></g></svg>